<?xml version="1.0" encoding="UTF-8"?>
<svg id="Layer_2" data-name="Layer 2" xmlns="http://www.w3.org/2000/svg" viewBox="0 0 296.72 77.88">
  <defs>
    <style>
      .cls-1, .cls-2, .cls-3, .cls-4 {
        stroke-width: 0px;
      }

      .cls-2 {
        fill: #1c75bc;
      }

      .cls-3 {
        fill: #fff;
      }

      .cls-4 {
        fill: #fbfbfb;
      }
    </style>
  </defs>
  <g id="Layer_2-2" data-name="Layer 2">
    <path class="cls-2" d="M22.56,77.39c-3.02-.02-6.03-.03-9.05-.03s-6.11.01-9.16.03h0c-.95,0-1.63-.38-2.08-.63-.05-.03-.09-.05-.13-.08l-2.14.4v-4.83l.07-.25c1.66-6.21,6.62-9.03,10.21-10.61,1.66-.73,3.34-1.26,5.34-1.84,1.48-.42,2.99-.79,4.44-1.15,2.62-.64,5.09-1.25,7.49-2.15,7.32-2.77,12.45-6.21,16.15-10.8,2.75-3.42,4.4-7.66,5.06-12.96l.02-.22c.01-.19.03-.38.06-.56.08-.49.18-1.07.37-1.67l3.89.33c1.09,7.64-.44,14.56-4.53,20.55-.32.46-.33.64-.2,1.08,1.2,4.27,2.33,8.6,3.28,12.29.14.53.35.96.69,1.4,1.57,2.03,3.12,4.08,4.67,6.11l2.25,2.96-.43,1.06c-.4.99-1.26,1.57-2.29,1.57-.13,0-.25,0-.38-.02-3.85,0-7.76,0-11.67,0h-7.1s-.24,0-.24,0c-1.71,0-2.53-1.14-2.73-2.21-.42-2.24-1.58-4.23-2.82-6.35-.57-.97-1.16-1.98-1.68-3.03-.16-.32-.4-.8-.58-1.12-.32.08-.79.22-1.21.35l-.53.16c-.61.19-1.24.39-1.91.52.02,1.44.02,2.88.02,4.32,0,1.39,0,2.78.01,4.17,0,.46.02,1.55-.8,2.38s-1.91.83-2.27.83h-.05Z"/>
    <path class="cls-2" d="M92.63,76.86c-1.82,0-2.98-.94-3.46-2.79-1.07-4.13-2.16-8.25-3.25-12.38-1.04-3.95-2.08-7.89-3.11-11.84-.45.02-.9.03-1.35.03-.29,0-.58,0-.86-.01.03,3.83.02,7.66.02,11.49v6.4c-.01,1.98-.02,3.97.01,5.95,0,.64-.06,1.57-.79,2.31-.81.83-1.89.83-2.25.83-3.09-.02-6.15-.02-9.21-.02s-6.02,0-9.04.02h-.01c-.5,0-1.84-.01-2.55-1.18-.72-1.18-.11-2.37.12-2.81.52-1.01,1.02-2.04,1.53-3.06.63-1.28,1.25-2.55,1.91-3.81.4-.75.57-1.49.57-2.38-.03-16.96-.02-33.92,0-50.88,0-.57-.1-1.02-.34-1.49-.66-1.28-1.31-2.58-1.95-3.87-.57-1.14-1.13-2.28-1.71-3.41-.2-.4-.82-1.6-.1-2.79.72-1.18,2.07-1.18,2.57-1.18,6.69.01,13.37.02,20.04.02s13.36,0,20.04-.01c1.21,0,2.18.46,2.96,1.42,2.2,2.68,4.42,5.35,6.66,8,.69.82,1.02,1.74,1.01,2.81-.02,8.48-.02,16.95,0,25.43,0,1.06-.33,1.98-1.02,2.8-1.07,1.27-2.13,2.55-3.19,3.83-1.11,1.34-2.23,2.69-3.35,4.02,1,3.72,1.96,7.4,2.92,11.08l1.25,4.76c.02.09.04.18.07.27,1.39,1.85,2.8,3.69,4.24,5.57.05-.07.11-.15.16-.22,1.33-1.86,2.58-3.61,3.55-5.48.45-.88.6-2.09.75-3.38.08-.63.15-1.26.26-1.87,1.3-7.32,2.6-14.63,3.89-21.95l4.27-24.12c.07-.4.05-.72-.08-1.06-.42-1.15-.81-2.31-1.21-3.47-.4-1.18-.8-2.36-1.23-3.53-.19-.52-.64-1.74.13-2.85.77-1.11,2.11-1.11,2.61-1.11,5.14.02,10.25.03,15.36.03h13.47c.58,0,1.15,0,1.73,0,.56,0,1.13.01,1.69.01.75,0,1.5,0,2.25-.04.1,0,.19,0,.27,0,1.1,0,1.91.37,2.42,1.08.78,1.1.33,2.34.14,2.87-.34.94-.64,1.88-.95,2.83-.4,1.24-.81,2.52-1.29,3.78-.34.9-.17,1.8.14,3.2.09.42.19.84.26,1.27,1.72,9.88,3.47,19.75,5.22,29.62l2.13,11.99c.4,2.23.8,4.46,1.18,6.7.02.09.19.35.33.54l7.9,11.58h-12.99c-3.53,0-7.01,0-10.5.01-.91,0-2.48-.33-2.84-2.52-.32-1.93-.65-3.87-.98-5.8-.43-2.51-.86-5.03-1.27-7.55-2.13.02-4.27.03-6.4.03s-4.15-.01-6.23-.03c-.39,2.31-.79,4.62-1.2,6.93-.38,2.13-.75,4.26-1.11,6.39-.16.95-.79,2.55-3.17,2.55-1.68,0-3.32-.04-4.97-.07-1.79-.04-3.57-.07-5.36-.07-2.45,0-4.46.07-6.33.22-3.03.25-5.96.28-8.42.28-1.06,0-2.12,0-3.19-.01-1.05,0-2.1-.01-3.16-.01-2.13,0-3.78.03-5.34.1-.09,0-.18,0-.26,0ZM141.52,47.27c1.31,0,2.61,0,3.91.03-.92-5.07-1.82-10.14-2.73-15.21-.43-2.41-.86-4.82-1.29-7.23-1.31,7.48-2.62,14.96-3.95,22.43,1.36-.02,2.71-.03,4.05-.03ZM80.61,13.47c.03,7.38.03,14.92,0,22.97,1.63-.02,3.25-.03,4.88-.03s3.34,0,5.01.03c-.03-2.74-.02-5.51-.02-8.19v-3.27s0-3.22,0-3.22c0-2.77,0-5.53.01-8.3-1.63.02-3.21.03-4.79.03-1.7,0-3.4,0-5.1-.03Z"/>
    <g>
      <path class="cls-4" d="M166.89,66.12c1.84,2.7,3.68,5.39,5.67,8.3-6.76,0-13.23,0-19.71.02-.65,0-.77-.29-.86-.85-.77-4.64-1.6-9.27-2.34-13.92-.14-.85-.42-1.11-1.29-1.1-4.59.04-9.2.05-13.79,0-.97-.01-1.19.35-1.33,1.2-.77,4.6-1.61,9.19-2.39,13.79-.13.8-.55.89-1.23.89-5.6-.02-11.23-.37-16.79.08-.56.05-1.13.08-1.69.11l-.08-1.25c1.89-2.78,3.95-5.32,5.42-8.17.87-1.69.85-3.86,1.2-5.82,1.82-10.25,3.63-20.5,5.45-30.75.9-5.11,1.81-10.21,2.71-15.32.13-.71.09-1.38-.17-2.1-.85-2.32-1.58-4.68-2.43-7-.37-.99-.23-1.27.89-1.26,9.6.04,19.2.02,28.8.02,1.92,0,3.84.06,5.76-.02,1.15-.05,1.2.33.86,1.27-.78,2.18-1.4,4.42-2.22,6.57-.74,1.93-.02,3.72.29,5.53,2.26,12.96,4.57,25.92,6.86,38.88.56,3.14,1.13,6.28,1.67,9.43.1.58.43,1.02.74,1.48ZM146.48,49.32c1.12.03,1.3-.27,1.1-1.34-1.75-9.65-3.44-19.31-5.19-28.96-.29-1.62-.45-3.28-1-4.99-.11.23-.16.3-.17.37-1.97,11.23-3.92,22.46-5.93,33.68-.17.97-.03,1.25.99,1.24,3.4-.06,6.8-.07,10.2,0Z"/>
      <path class="cls-4" d="M111.06,73.38l.08,1.25c-6.12.35-12.22-.04-18.33.23-1.02.04-1.44-.27-1.7-1.28-2.12-8.22-4.33-16.42-6.46-24.64-.23-.9-.61-1.15-1.46-1.1-1.12.06-2.25.07-3.36,0-.93-.06-1.24.23-1.23,1.2.05,5.47.02,10.95.02,16.43,0,2.76-.02,5.52.02,8.28.01.81-.2,1.11-1.06,1.11-6.08-.03-12.16-.03-18.24,0-.98,0-1.08-.26-.66-1.08,1.17-2.27,2.24-4.6,3.43-6.86.56-1.05.81-2.11.81-3.31-.03-16.95-.03-33.91-.01-50.87,0-.86-.17-1.63-.57-2.4-1.25-2.42-2.42-4.86-3.66-7.28-.44-.86-.22-1.06.7-1.06,13.36.03,26.72.02,40.08.01.63-.01,1.02.21,1.41.68,2.21,2.69,4.43,5.36,6.67,8.03.38.45.55.91.55,1.51-.02,8.48-.02,16.96,0,25.44,0,.6-.17,1.05-.55,1.51-2.22,2.63-4.39,5.29-6.61,7.92-.42.5-.57.91-.38,1.6,1.43,5.31,2.8,10.64,4.2,15.96.08.31.17.64.35.88,1.95,2.59,3.91,5.15,5.96,7.84ZM91.37,38.45c.87.02,1.15-.18,1.14-1.1-.06-4.12-.03-8.24-.03-12.36s-.02-8.24.02-12.36c.01-.84-.13-1.19-1.09-1.17-3.88.06-7.76.05-11.64,0-.86-.01-1.17.2-1.17,1.13.04,8.24.04,16.48.01,24.72-.01.87.19,1.16,1.12,1.15,3.88-.06,7.76-.05,11.64-.01Z"/>
    </g>
    <path class="cls-2" d="M20.88,43.96c-2.05,0-3.96-1.02-5.1-2.73-.41-.62-.69-1.28-.83-1.98-.13,0-.25-.01-.38-.03-.58,1.87-1.97,4.31-5.68,4.5-.11,0-.22,0-.33,0-3.13,0-6.13-2.32-7.13-5.51-.76-2.44-.33-4.72,1.29-6.8l2.35-3.02,1.27,4.09c.07.25.14.46.21.67.38,1.14,1.77,2.06,3.09,2.06.26,0,.5-.04.72-.11.19-.06.25-.14.26-.15,0-.01,0-.09-.1-.22-.61-.86-1.24-1.36-1.86-1.48-2.75-.52-2.74-2.78-2.74-3.52.01-2.91.01-5.83.01-8.74,0-2.61,0-5.21.01-7.82,0-.51-.09-.92-.32-1.36-.66-1.27-1.29-2.56-1.93-3.84-.59-1.19-1.18-2.37-1.78-3.55-.22-.43-.81-1.57-.11-2.71.47-.76,1.28-1.15,2.42-1.15,2.79.01,5.55.02,8.31.02s5.43,0,8.14-.02c.99,0,1.75.29,2.3.86.83.86.8,1.98.78,2.35-.01.45,0,.9,0,1.34,0,.16,0,.32,0,.48.75-.13,1.53-.19,2.39-.19.58,0,1.15.03,1.73.07.48.03,1.47.09,2.28.99l1.51,1.69c.13-.25.27-.5.4-.74.67-1.26,1.31-2.58,1.92-3.86l.06-.13c.99-2.07,2.74-3.21,4.91-3.21.16,0,.32,0,.49.02,2.04.15,4.22.22,7.08.22,1.23,0,2.46-.01,3.69-.02,1.24-.01,2.49-.02,3.73-.02.88,0,1.76,0,2.65.02h3.04s.24,1.73.24,1.73c.2,1.46-.69,2.31-1.03,2.63l-.07.07c-.39.46-.79.94-1.18,1.43-1.07,1.31-2.17,2.66-3.48,3.86-1.97,1.81-2.84,4.3-3.76,6.93-.22.62-.43,1.23-.66,1.85-.51,1.36-1,2.73-1.49,4.1l-.62,1.73c-.38,1.57-1.33,2-2.06,2.1-.09.01-.12.03-.12.03-.08.1-.23.63-.32.94l-.08.29c-.25.86-.72,2.12-1.82,3.21-.45.45-.81,1.08-1.16,2.04-1.06,2.88-2.64,4.03-5.64,4.1-.36,0-.6.05-.93.72-1.7,3.48-4.1,4.21-5.81,4.21-1.13,0-2.34-.32-3.61-.95-.02-.01-.05-.02-.07-.03-.08.07-.18.18-.32.34-1.21,1.39-2.95,2.2-4.77,2.2ZM29.39,9.68l-.18.08c-.21.09-.51.22-.86.3-4,.92-6.7,4.49-7.06,9.32-.25,3.35.42,6.16,2.03,8.58,1.39,2.09,3.55,3.34,5.78,3.34.46,0,.92-.05,1.37-.16,2.4-.59,4.6-2.99,5.22-5.62-.93,1.61-2.51,2.74-4.32,2.94-.21.02-.41.03-.61.03-1.54,0-2.95-.63-3.97-1.77-1.17-1.31-1.71-3.2-1.49-5.18.16-1.37.57-2.68,1.24-3.91,1.58-2.89,3.15-5.78,4.71-8.68l-1.86.73Z"/>
    <path class="cls-3" d="M57.91,2.45c.08.57-.37.81-.63,1.11-1.48,1.73-2.84,3.6-4.5,5.13-2.85,2.62-3.67,6.18-4.94,9.55-.73,1.94-1.41,3.9-2.12,5.85-.1.29-.11.75-.44.79-1.59.21-1.84,1.53-2.18,2.68-.27.91-.63,1.69-1.31,2.36-.78.77-1.25,1.74-1.63,2.76-.76,2.07-1.62,2.74-3.81,2.79-1.33.03-2.13.71-2.68,1.84-1.5,3.08-3.72,3.85-6.74,2.35-1.14-.56-1.76-.38-2.79.8-1.86,2.14-5.15,1.97-6.7-.34-.48-.72-.66-1.51-.58-2.38.12-1.29.41-1.5,1.58-.97,1.22.54,2.46.62,3.74.26.39-.11.78-.18.89-.74-.84-.08-1.66-.18-2.48-.25-.74-.07-1.25-.33-1.09-1.2.1-.59-.15-.65-.67-.56-1.24.2-2.21.8-2.69,1.95-.49,1.17-1.16,1.27-2.13.64-.53-.34-.87-.53-1.04.44-.55,3.06-1.78,4.29-4.18,4.41-2.33.12-4.68-1.65-5.45-4.1-.55-1.76-.28-3.38.96-4.97.14.46.25.81.36,1.16.82,2.44,3.88,4,6.32,3.22,1.57-.51,2.13-2.09,1.18-3.44-.79-1.1-1.8-2.03-3.13-2.28-1.05-.2-1.11-.7-1.11-1.54.03-5.52.01-11.04.03-16.56,0-.83-.17-1.56-.55-2.29-1.26-2.45-2.46-4.93-3.71-7.38-.36-.7-.33-.95.55-.95,5.48.03,10.96.03,16.44,0,.89-.01,1.1.37,1.07,1.15-.03,1.11.05,2.24-.02,3.35-.07.89.19,1.12,1.04.83,1.61-.55,3.29-.54,4.97-.43.32.02.65.02.93.33-.27.11-.51.24-.77.3-4.98,1.14-8.19,5.58-8.6,11.12-.26,3.5.37,6.85,2.36,9.84,2.17,3.26,5.87,4.84,9.29,4.01,3.39-.83,6.32-4.24,6.84-7.88.26-1.86.13-3.66-.57-5.41s-2.19-2.79-3.61-2.59c-1.79.25-2.72,1.6-2.53,3.75.16-.05.26-.05.31-.1.62-.58,1.24-1.26,2.18-.73.92.52,1.05,1.47.99,2.41-.13,2.04-1.62,3.75-3.4,3.94-2.44.26-4.19-1.87-3.87-4.71.13-1.12.46-2.18,1.01-3.17,1.86-3.4,3.71-6.8,5.53-10.22.72-1.33,1.37-2.7,2.03-4.07.7-1.45,1.83-2.17,3.45-2.05,5.75.42,11.51.09,17.26.19.44.01.88,0,1.34,0Z"/>
    <path class="cls-2" d="M8.92,58.83c-1.43,0-2.82-.4-4.02-1.16-3.56-2.24-4.75-6.69-2.84-10.57l1.84-3.73,1.77,3.76c.85,1.82,1.85,2.06,2.71,2.06.16,0,.33,0,.5-.03,2.18-.25,2.76-.97,3.03-2.13l.77-3.36,2.53,2.34c2.35,2.17,2.33,6.62-.05,9.71-1.5,1.94-3.83,3.1-6.23,3.1Z"/>
    <path class="cls-2" d="M21.59,55.14c-1.04,0-2.05-.23-2.94-.67-2.93-1.46-4.05-4.49-3-8.12l1.24-4.26,2.37,3.75c.55.86,1.35,1.04,1.93,1.04,1.09,0,2.47-.69,2.87-1.98l1.06-3.42,2.35,2.7c1.92,2.21,1.88,5.56-.11,8.15-1.35,1.76-3.51,2.81-5.78,2.81Z"/>
    <path class="cls-2" d="M32.39,52.06c-.96,0-1.89-.23-2.7-.66-2.49-1.34-3.61-4.34-2.59-6.96l.9-2.31,2.07,1.37c.64.42,1.25.64,1.8.64,1.33,0,2.19-1.31,2.52-2.43l.87-2.92,2.33,1.95c2.29,1.92,2.57,5.24.67,8.09-1.33,1.99-3.57,3.23-5.87,3.23Z"/>
    <path class="cls-2" d="M40.92,45.41c-2.47,0-4.61-1.9-4.88-4.32-.15-1.43.66-2.5,2.08-2.72,2.16-.34,2.42-.61,2.74-2.88.04-.3.1-.59.17-.91l.56-2.88,2.3,1.03c1.66.74,2.68,2.1,3.01,4.04.63,3.66-1.41,7.44-4.55,8.43-.46.15-.94.22-1.43.22Z"/>
    <path class="cls-2" d="M7.54,50.94c-.41,0-.81-.1-1.19-.3-1.95-.98-2.26-2.56-2.27-3.41-.01-1.05.39-2.05,1.13-2.8.93-.95,2.37-1.49,4.05-1.5h.08s.08,0,.08,0c2.08.15,3.45,1.08,4.08,2.78.51,1.38.08,2.32-.23,2.76-.49.7-1.29,1.1-2.2,1.1-.27,0-.55-.03-.83-.1-.14-.03-.23-.04-.28-.04-.04,0-.07.02-.12.06l-.03.05c-.22.35-.9,1.4-2.26,1.4Z"/>
    <path class="cls-2" d="M41.21,31.17l-2.14-1.26,3.91-1.05.69-.89.55.33s.04-.08.06-.12c.16-.41.04-.98-.31-1.52l-1.6-2.44,2.85-.62c.35-.08.7-.12,1.04-.12,1.63,0,2.95.88,3.72,2.47.95,1.96.43,4.57-1.2,6.07-.86.79-1.81,1.19-2.82,1.19-.64,0-1.28-.15-1.99-.47l-4.97,1.34,2.22-2.91Z"/>
    <path class="cls-2" d="M20.63,49.21c-.61,0-1.22-.21-1.79-.61-2.38-1.68-1.52-3.71-1.2-4.3.79-1.43,2.34-2.32,4.06-2.32s3.19.8,4.14,2.15l2.31,3.28-4.2-.13c-.69,0-.74.11-.8.23-.75,1.53-2.01,1.69-2.52,1.69Z"/>
    <path class="cls-2" d="M10.56,37.19c-.94,0-1.52-.55-1.78-.81-.05-.03-.09-.05-.12-.07-.35.18-.86.41-1.51.41-.79,0-1.53-.36-2.08-1.01-.36-.42-1.45-1.72-.74-3.45.55-1.33,1.69-2.01,3.4-2.01,1.97.07,3.58.94,4.71,2.51,1.06,1.48.6,2.88-.11,3.63-.48.51-1.1.79-1.75.79Z"/>
    <path class="cls-2" d="M31.87,46.72c-.59,0-1.13-.16-1.53-.3-.86-.31-1.5-.91-1.81-1.69-.33-.83-.25-1.78.22-2.68.84-1.61,2.31-2.53,4.04-2.53.89,0,1.8.24,2.7.72l3.65,1.93-3.78,1.67c-.72.32-.75.47-.8.69-.28,1.34-1.34,2.2-2.7,2.2Z"/>
    <path class="cls-2" d="M39.41,41.1c-.09,0-.18,0-.27-.01-.81-.06-2.68-.51-2.65-3.36.11-2.21,1.9-4.3,3.84-4.56.2-.03.38-.05.55-.05.99,0,1.83.55,2.19,1.44.43,1.07-.13,1.97-.34,2.32l-.15.23c-.19.3-.43.67-.43.83v.12c-.08,2.83-2.11,3.05-2.74,3.05Z"/>
    <path class="cls-2" d="M43.46,32.6l-2.39-.05.83-1.81c-.26-.63-.39-1.38-.37-2.19.02-.74.21-2.58,1.58-3.61.5-.37,1.03-.56,1.59-.56.49,0,.97.15,1.39.43,1.14.77,1.47,2.25.75,3.36-.16.25-.23.68-.31,1.18-.03.16-.05.33-.09.51l.49.4-1.05,1.37-.96,2.16-1.46-1.21Z"/>
    <g>
      <path class="cls-3" d="M56.96,75.06c-.19.45-.51.3-.76.3-6.24.01-12.48.01-18.71.01-.47,0-1,.11-1.13-.58-.69-3.71-3.05-6.63-4.68-9.9-1.33-2.67-1.4-2.62-4.22-1.78-.87.27-1.75.57-2.65.7s-1.18.49-1.17,1.4c.06,3,0,6,.04,9,.01.84-.14,1.19-1.1,1.18-6.08-.05-12.16-.04-18.24,0-.89,0-1.44-.89-2.34-.72v-2.16c1.28-4.8,4.81-7.42,9.08-9.3,1.64-.72,3.36-1.25,5.09-1.74,4.02-1.15,8.16-1.87,12.09-3.36,6.54-2.48,12.52-5.85,16.99-11.41,3.28-4.08,4.86-8.84,5.49-13.97.03-.24.03-.48.07-.71.07-.47.16-.93.3-1.38.98,6.9-.23,13.34-4.2,19.15-.63.91-.78,1.69-.48,2.75,1.14,4.07,2.21,8.15,3.27,12.24.21.8.54,1.48,1.04,2.12,2.09,2.72,4.16,5.46,6.22,8.16Z"/>
      <path class="cls-3" d="M48.16,26.83c.57,1.18.22,2.84-.74,3.72-.94.86-1.82.88-3.22.05,2.1-.57,2.81-2.96,1.43-5.04,1.21-.26,2.03.22,2.53,1.27Z"/>
      <path class="cls-3" d="M44.96,26.47c.23.16.32.44.2.63-.69,1.07-.49,2.37-1,3.48-.92-.76-.83-3.3.14-4.03.21-.15.42-.24.66-.08Z"/>
      <path class="cls-3" d="M44.93,37.11c.47,2.69-.99,5.49-3.18,6.18-1.69.53-3.53-.67-3.72-2.41-.04-.32,0-.47.4-.53,3.05-.48,3.96-1.45,4.41-4.58.06-.38.15-.76.24-1.21,1.18.53,1.66,1.45,1.85,2.55Z"/>
      <path class="cls-1" d="M44.2,30.6s-.03.02-.05.02l.02-.03s.02.01.03.01Z"/>
      <path class="cls-1" d="M44.17,30.59l-.02.03s0-.03,0-.04h.01Z"/>
      <path class="cls-3" d="M41.22,35.32c.05.13-.1.36-.19.51-.4.64-.85,1.26-.88,2.04-.02.62.03,1.3-.86,1.23-.82-.06-.81-.73-.8-1.34.05-1.16,1.1-2.47,2.1-2.6.22-.03.52-.09.63.16Z"/>
      <path class="cls-3" d="M36.31,42.28c1.5,1.25,1.59,3.49.28,5.45-1.37,2.06-4.07,2.92-5.95,1.91-1.6-.86-2.32-2.79-1.67-4.47,3.46,2.28,6.41.22,7.34-2.89Z"/>
      <path class="cls-3" d="M30.52,42.97c.77-1.47,2.28-1.89,4.04-.96-1.08.47-1.73,1.04-1.95,2.11-.18.86-1.06.61-1.6.41-.72-.25-.84-.87-.49-1.56Z"/>
      <path class="cls-3" d="M25.98,45.5c1.3,1.49,1.22,3.78-.19,5.62-1.44,1.88-4.22,2.57-6.25,1.56-2.02-1-2.75-3.06-1.96-5.77,2.14,3.38,7.31,2.1,8.4-1.41Z"/>
      <path class="cls-3" d="M24.21,45.29c-1.3-.04-2.29.22-2.85,1.35-.31.63-.78.74-1.36.33-.6-.43-1.03-.92-.6-1.7.92-1.67,3.56-1.75,4.81.02Z"/>
      <path class="cls-3" d="M13.85,47.49c1.58,1.46,1.42,4.82-.28,7.02-1.85,2.4-5.13,3.03-7.61,1.47-2.65-1.67-3.58-5.01-2.11-7.99,1.06,2.27,2.72,3.46,5.25,3.17,2.32-.27,4.17-1.13,4.75-3.67Z"/>
      <path class="cls-3" d="M11.62,46.41c.32.85-.06,1.32-.93,1.12-.93-.23-1.7-.07-2.37.65-.29.32-.45,1-1.07.69-.65-.33-1.16-.82-1.17-1.66-.01-1.31,1.2-2.26,3.2-2.28.86.06,1.9.28,2.34,1.48Z"/>
      <path class="cls-3" d="M10.8,33.93c.24.34.39.75.06,1.1-.4.43-.62-.1-.88-.26-.63-.4-1.27-.71-2.01-.35-.48.23-.93.54-1.38,0-.34-.4-.65-.83-.42-1.4.27-.67.86-.76,1.55-.76,1.26.04,2.31.6,3.08,1.67Z"/>
    </g>
    <polygon class="cls-2" points="210.23 77.88 199.6 48.73 199.6 66.23 205.5 77.88 174.17 77.88 180.06 66.23 180.06 14.2 174.17 2.55 205.5 2.55 199.6 14.2 199.6 31.71 210.23 2.55 236.74 2.55 226.12 14.76 216.89 40.27 226.11 65.68 236.74 77.88 210.23 77.88"/>
    <polygon class="cls-3" points="224.36 66.71 232.35 75.88 211.63 75.88 200.3 44.8 197.6 44.8 197.6 66.71 202.24 75.88 177.42 75.88 182.06 66.71 182.06 13.73 177.42 4.55 202.24 4.55 197.6 13.73 197.6 35.63 200.3 35.63 211.63 4.55 232.35 4.55 224.36 13.73 214.76 40.27 224.36 66.71"/>
    <path class="cls-2" d="M233.96,77.88l5.89-11.65V14.2l-5.89-11.65h62.76l-6.04,11.66v52.01l6.04,11.66h-62.76ZM265.32,77.74l5.82-11.51v-6.27l-11.65-18.15v24.43l5.82,11.51ZM271.15,30.38V14.2l-5.82-11.51-5.41,10.68,11.23,17Z"/>
    <polygon class="cls-3" points="288.69 66.71 293.43 75.88 268.51 75.88 273.15 66.71 273.15 59.37 257.5 34.98 257.5 66.71 262.14 75.88 237.21 75.88 241.85 66.71 241.85 13.73 237.21 4.55 262.14 4.55 257.61 13.51 273.15 37.03 273.15 13.73 268.51 4.55 293.43 4.55 288.69 13.73 288.69 66.71"/>
  </g>
</svg>